{
  "accessors": [
    {
      "bufferView": 2,
      "componentType": 5126,
      "count": 738,
      "max": [
        2.0584473609924316,
        1.0,
        1.0341930389404297
      ],
      "min": [
        -0.9999998211860657,
        -0.9440271854400635,
        -1.0341930389404297
      ],
      "type": "VEC3"
    },
    {
      "bufferView": 2,
      "byteOffset": 8856,
      "componentType": 5126,
      "count": 738,
      "max": [
        0.9407184720039368,
        1.0,
        0.9347697496414185
      ],
      "min": [
        -1.0,
        -0.956946611404419,
        -0.9347697496414185
      ],
      "type": "VEC3"
    },
    {
      "bufferView": 1,
      "componentType": 5126,
      "count": 738,
      "max": [
        1.0000001192092896,
        1.0
      ],
      "min": [
        0.0,
        0.01000000536441803
      ],
      "type": "VEC2"
    },
    {
      "bufferView": 0,
      "componentType": 5125,
      "count": 2832,
      "type": "SCALAR"
    },
    {
      "bufferView": 2,
      "byteOffset": 17712,
      "componentType": 5126,
      "count": 718,
      "max": [
        2.1744658946990967,
        0.009781823493540287,
        1.0003422498703003
      ],
      "min": [
        1.3950769901275635,
        -0.15893378853797913,
        -1.0003422498703003
      ],
      "type": "VEC3"
    },
    {
      "bufferView": 2,
      "byteOffset": 26328,
      "componentType": 5126,
      "count": 718,
      "max": [
        0.9651403427124023,
        0.9999977350234985,
        0.9663695693016052
      ],
      "min": [
        -1.0,
        -0.9999977350234985,
        -0.9663695693016052
      ],
      "type": "VEC3"
    },
    {
      "bufferView": 1,
      "byteOffset": 5904,
      "componentType": 5126,
      "count": 718,
      "max": [
        1.000000238418579,
        1.0
      ],
      "min": [
        0.0,
        0.01000000536441803
      ],
      "type": "VEC2"
    },
    {
      "bufferView": 0,
      "byteOffset": 11328,
      "componentType": 5125,
      "count": 2268,
      "type": "SCALAR"
    },
    {
      "bufferView": 2,
      "byteOffset": 34944,
      "componentType": 5126,
      "count": 952,
      "max": [
        3.735241413116455,
        0.22259902954101563,
        0.7674776315689087
      ],
      "min": [
        2.7674129009246826,
        -0.11246032267808914,
        -0.7674776315689087
      ],
      "type": "VEC3"
    },
    {
      "bufferView": 2,
      "byteOffset": 46368,
      "componentType": 5126,
      "count": 952,
      "max": [
        0.905056893825531,
        0.8902309536933899,
        0.9987689852714539
      ],
      "min": [
        -1.0,
        -0.8209667801856995,
        -0.9987689852714539
      ],
      "type": "VEC3"
    },
    {
      "bufferView": 1,
      "byteOffset": 11648,
      "componentType": 5126,
      "count": 952,
      "max": [
        1.000000238418579,
        1.0
      ],
      "min": [
        0.0,
        0.01000000536441803
      ],
      "type": "VEC2"
    },
    {
      "bufferView": 0,
      "byteOffset": 20400,
      "componentType": 5125,
      "count": 2652,
      "type": "SCALAR"
    },
    {
      "bufferView": 2,
      "byteOffset": 57792,
      "componentType": 5126,
      "count": 270,
      "max": [
        0.9922682046890259,
        0.0006781072588637471,
        0.7707538604736328
      ],
      "min": [
        -0.45491647720336914,
        -1.0000003576278687,
        -0.7707538604736328
      ],
      "type": "VEC3"
    },
    {
      "bufferView": 2,
      "byteOffset": 61032,
      "componentType": 5126,
      "count": 270,
      "max": [
        0.9807879328727722,
        1.0,
        0.9983660578727722
      ],
      "min": [
        -0.9808298945426941,
        -1.0,
        -0.9983660578727722
      ],
      "type": "VEC3"
    },
    {
      "bufferView": 1,
      "byteOffset": 19264,
      "componentType": 5126,
      "count": 270,
      "max": [
        0.49999991059303284,
        0.7819864749908447
      ],
      "min": [
        0.16401289403438568,
        0.5
      ],
      "type": "VEC2"
    },
    {
      "bufferView": 0,
      "byteOffset": 31008,
      "componentType": 5125,
      "count": 1608,
      "type": "SCALAR"
    },
    {
      "bufferView": 2,
      "byteOffset": 64272,
      "componentType": 5126,
      "count": 2373,
      "max": [
        3.229496955871582,
        0.4288153052330017,
        0.5420112609863281
      ],
      "min": [
        0.5312134027481079,
        -0.6644886136054993,
        -0.5420112609863281
      ],
      "type": "VEC3"
    },
    {
      "bufferView": 2,
      "byteOffset": 92748,
      "componentType": 5126,
      "count": 2373,
      "max": [
        0.9967266917228699,
        0.9985580444335938,
        1.0
      ],
      "min": [
        -0.9985547661781311,
        -0.9980525374412537,
        -1.0
      ],
      "type": "VEC3"
    },
    {
      "bufferView": 1,
      "byteOffset": 21424,
      "componentType": 5126,
      "count": 2373,
      "max": [
        1.000000238418579,
        1.0
      ],
      "min": [
        0.0,
        0.01000000536441803
      ],
      "type": "VEC2"
    },
    {
      "bufferView": 0,
      "byteOffset": 37440,
      "componentType": 5125,
      "count": 12438,
      "type": "SCALAR"
    },
    {
      "bufferView": 2,
      "byteOffset": 121224,
      "componentType": 5126,
      "count": 1612,
      "max": [
        5.325313568115234,
        0.5964826345443726,
        1.0229486227035522
      ],
      "min": [
        3.6797678470611572,
        -0.4834807813167572,
        -1.0229486227035522
      ],
      "type": "VEC3"
    },
    {
      "bufferView": 2,
      "byteOffset": 140568,
      "componentType": 5126,
      "count": 1612,
      "max": [
        1.0,
        1.0,
        1.0
      ],
      "min": [
        -0.889927089214325,
        -1.0,
        -1.0
      ],
      "type": "VEC3"
    },
    {
      "bufferView": 1,
      "byteOffset": 40408,
      "componentType": 5126,
      "count": 1612,
      "max": [
        1.000000238418579,
        1.0
      ],
      "min": [
        0.0,
        0.0
      ],
      "type": "VEC2"
    },
    {
      "bufferView": 0,
      "byteOffset": 87192,
      "componentType": 5125,
      "count": 7836,
      "type": "SCALAR"
    },
    {
      "bufferView": 2,
      "byteOffset": 159912,
      "componentType": 5126,
      "count": 6762,
      "max": [
        3.6380152702331543,
        0.14853151142597198,
        1.5477044582366943
      ],
      "min": [
        2.110623836517334,
        -0.29768329858779907,
        -1.5477044582366943
      ],
      "type": "VEC3"
    },
    {
      "bufferView": 2,
      "byteOffset": 241056,
      "componentType": 5126,
      "count": 6762,
      "max": [
        1.0,
        1.0,
        1.0
      ],
      "min": [
        -1.0,
        -1.0,
        -1.0
      ],
      "type": "VEC3"
    },
    {
      "bufferView": 1,
      "byteOffset": 53304,
      "componentType": 5126,
      "count": 6762,
      "max": [
        1.000000238418579,
        1.0
      ],
      "min": [
        0.0,
        0.0
      ],
      "type": "VEC2"
    },
    {
      "bufferView": 0,
      "byteOffset": 118536,
      "componentType": 5125,
      "count": 32532,
      "type": "SCALAR"
    }
  ],
  "asset": {
    "extras": {
      "author": "gammi7186 (https://sketchfab.com/gammi7186)",
      "license": "CC-BY-4.0 (http://creativecommons.org/licenses/by/4.0/)",
      "source": "https://sketchfab.com/3d-models/robot-pack-978ce77a3d96468aafa6c44ce63df2c2",
      "title": "Robot Pack"
    },
    "generator": "Sketchfab-12.67.0",
    "version": "2.0"
  },
  "bufferViews": [
    {
      "buffer": 0,
      "byteLength": 248664,
      "name": "floatBufferViews",
      "target": 34963
    },
    {
      "buffer": 0,
      "byteLength": 107400,
      "byteOffset": 248664,
      "byteStride": 8,
      "name": "floatBufferViews",
      "target": 34962
    },
    {
      "buffer": 0,
      "byteLength": 322200,
      "byteOffset": 356064,
      "byteStride": 12,
      "name": "floatBufferViews",
      "target": 34962
    }
  ],
  "buffers": [
    {
      "byteLength": 678264,
      "uri": "scene.bin"
    }
  ],
  "materials": [
    {
      "doubleSided": true,
      "name": "Material.001",
      "pbrMetallicRoughness": {
        "baseColorFactor": [
          0.8,
          0.8,
          0.8,
          1.0
        ],
        "metallicFactor": 0.0,
        "roughnessFactor": 0.8211145618000169
      }
    }
  ],
  "meshes": [
    {
      "name": "Sphere_Material.001_0",
      "primitives": [
        {
          "attributes": {
            "NORMAL": 1,
            "POSITION": 0,
            "TEXCOORD_0": 2
          },
          "indices": 3,
          "material": 0,
          "mode": 4
        }
      ]
    },
    {
      "name": "Sphere.001_Material.001_0",
      "primitives": [
        {
          "attributes": {
            "NORMAL": 5,
            "POSITION": 4,
            "TEXCOORD_0": 6
          },
          "indices": 7,
          "material": 0,
          "mode": 4
        }
      ]
    },
    {
      "name": "Sphere.002_Material.001_0",
      "primitives": [
        {
          "attributes": {
            "NORMAL": 9,
            "POSITION": 8,
            "TEXCOORD_0": 10
          },
          "indices": 11,
          "material": 0,
          "mode": 4
        }
      ]
    },
    {
      "name": "Sphere.003_Material.001_0",
      "primitives": [
        {
          "attributes": {
            "NORMAL": 13,
            "POSITION": 12,
            "TEXCOORD_0": 14
          },
          "indices": 15,
          "material": 0,
          "mode": 4
        }
      ]
    },
    {
      "name": "Sphere.004_Material.001_0",
      "primitives": [
        {
          "attributes": {
            "NORMAL": 17,
            "POSITION": 16,
            "TEXCOORD_0": 18
          },
          "indices": 19,
          "material": 0,
          "mode": 4
        }
      ]
    },
    {
      "name": "Sphere.005_Material.001_0",
      "primitives": [
        {
          "attributes": {
            "NORMAL": 21,
            "POSITION": 20,
            "TEXCOORD_0": 22
          },
          "indices": 23,
          "material": 0,
          "mode": 4
        }
      ]
    },
    {
      "name": "Sphere.006_Material.001_0",
      "primitives": [
        {
          "attributes": {
            "NORMAL": 25,
            "POSITION": 24,
            "TEXCOORD_0": 26
          },
          "indices": 27,
          "material": 0,
          "mode": 4
        }
      ]
    }
  ],
  "nodes": [
    {
      "children": [
        1
      ],
      "matrix": [
        1.0,
        0.0,
        0.0,
        0.0,
        0.0,
        2.220446049250313e-16,
        -1.0,
        0.0,
        0.0,
        1.0,
        2.220446049250313e-16,
        0.0,
        0.0,
        0.0,
        0.0,
        1.0
      ],
      "name": "Sketchfab_model"
    },
    {
      "children": [
        2
      ],
      "matrix": [
        0.009999999776482582,
        0.0,
        0.0,
        0.0,
        0.0,
        0.0,
        0.009999999776482582,
        0.0,
        0.0,
        -0.009999999776482582,
        0.0,
        0.0,
        0.0,
        0.0,
        0.0,
        1.0
      ],
      "name": "player robot.fbx"
    },
    {
      "children": [
        3,
        5,
        7,
        9,
        11,
        13,
        15
      ],
      "name": "RootNode"
    },
    {
      "children": [
        4
      ],
      "matrix": [
        4.066676050520583e-06,
        -53.864757537841655,
        0.0,
        0.0,
        4.066676053510678e-06,
        2.990094701718171e-13,
        -53.864757537841655,
        0.0,
        51.64822387695284,
        3.899332417846788e-06,
        3.899332414979736e-06,
        0.0,
        -8.234352049138366e-17,
        117.62641906738281,
        8.158544540405273,
        1.0
      ],
      "name": "Sphere"
    },
    {
      "mesh": 0,
      "name": "Sphere_Material.001_0"
    },
    {
      "children": [
        6
      ],
      "matrix": [
        4.066676050520583e-06,
        -53.864757537841655,
        0.0,
        0.0,
        4.066676053510678e-06,
        2.990094701718171e-13,
        -53.864757537841655,
        0.0,
        51.64822387695284,
        3.899332417846788e-06,
        3.899332414979736e-06,
        0.0,
        -8.234352049138366e-17,
        117.62641906738281,
        8.158544540405273,
        1.0
      ],
      "name": "Sphere.001"
    },
    {
      "mesh": 1,
      "name": "Sphere.001_Material.001_0"
    },
    {
      "children": [
        8
      ],
      "matrix": [
        4.066676050520583e-06,
        -53.864757537841655,
        0.0,
        0.0,
        4.066676053510678e-06,
        2.990094701718171e-13,
        -53.864757537841655,
        0.0,
        51.64822387695284,
        3.899332417846788e-06,
        3.899332414979736e-06,
        0.0,
        -8.234352049138366e-17,
        117.62641906738281,
        8.158544540405273,
        1.0
      ],
      "name": "Sphere.002"
    },
    {
      "mesh": 2,
      "name": "Sphere.002_Material.001_0"
    },
    {
      "children": [
        10
      ],
      "matrix": [
        4.066676050520583e-06,
        -53.864757537841655,
        0.0,
        0.0,
        4.066676053510678e-06,
        2.990094701718171e-13,
        -53.864757537841655,
        0.0,
        51.64822387695284,
        3.899332417846788e-06,
        3.899332414979736e-06,
        0.0,
        -8.234352049138366e-17,
        117.62641906738281,
        8.158544540405273,
        1.0
      ],
      "name": "Sphere.003"
    },
    {
      "mesh": 3,
      "name": "Sphere.003_Material.001_0"
    },
    {
      "children": [
        12
      ],
      "matrix": [
        4.066676050520583e-06,
        -53.864757537841655,
        0.0,
        0.0,
        4.066676053510678e-06,
        2.990094701718171e-13,
        -53.864757537841655,
        0.0,
        51.64822387695284,
        3.899332417846788e-06,
        3.899332414979736e-06,
        0.0,
        -8.234352049138366e-17,
        117.62641906738281,
        8.158544540405273,
        1.0
      ],
      "name": "Sphere.004"
    },
    {
      "mesh": 4,
      "name": "Sphere.004_Material.001_0"
    },
    {
      "children": [
        14
      ],
      "matrix": [
        4.066676050520583e-06,
        -53.864757537841655,
        0.0,
        0.0,
        4.066676053510678e-06,
        2.990094701718171e-13,
        -53.864757537841655,
        0.0,
        51.64822387695284,
        3.899332417846788e-06,
        3.899332414979736e-06,
        0.0,
        -8.234352049138366e-17,
        117.62641906738281,
        8.158544540405273,
        1.0
      ],
      "name": "Sphere.005"
    },
    {
      "mesh": 5,
      "name": "Sphere.005_Material.001_0"
    },
    {
      "children": [
        16
      ],
      "matrix": [
        4.066676050520583e-06,
        -53.864757537841655,
        0.0,
        0.0,
        4.066676053510678e-06,
        2.990094701718171e-13,
        -53.864757537841655,
        0.0,
        51.64822387695284,
        3.899332417846788e-06,
        3.899332414979736e-06,
        0.0,
        -8.234352049138366e-17,
        117.62641906738281,
        8.158544540405273,
        1.0
      ],
      "name": "Sphere.006"
    },
    {
      "mesh": 6,
      "name": "Sphere.006_Material.001_0"
    }
  ],
  "scene": 0,
  "scenes": [
    {
      "name": "Sketchfab_Scene",
      "nodes": [
        0
      ]
    }
  ]
}
